<svg width="24" height="25" viewBox="0 0 24 25" fill="none" xmlns="http://www.w3.org/2000/svg">
<g clip-path="url(#clip0_21_267)">
<path d="M22.685 1.37737L18.0562 0.254886C17.5533 0.133284 17.037 0.409228 16.8323 0.904991L14.6959 6.14324C14.509 6.60159 14.6336 7.13945 15.003 7.45281L17.7002 9.77261C16.0979 13.3599 13.2984 16.3438 9.81347 18.0603L7.60591 15.226C7.30326 14.8378 6.79588 14.7069 6.3597 14.9033L1.37488 17.1483C0.898652 17.3681 0.636058 17.9106 0.751777 18.4391L1.81995 23.3032C1.93122 23.8083 2.35849 24.1731 2.86143 24.1731C14.2598 24.1731 23.5128 14.4683 23.5128 2.47179C23.5128 1.94796 23.1701 1.49429 22.685 1.37737Z" fill="white"/>
</g>
<defs>
<clipPath id="clip0_21_267">
<rect x="0.72583" y="0.227295" width="22.7878" height="23.9463" fill="white"/>
</clipPath>
</defs>
</svg>
