<svg width="159" height="124" viewBox="0 0 159 124" fill="none" xmlns="http://www.w3.org/2000/svg">
<path d="M36.3093 22.6886L55.154 8.10188C68.591 -2.29902 90.3768 -2.29901 103.814 8.10189L107.334 10.8267L82.4068 30.1215C72.329 37.9222 55.9897 37.9222 45.912 30.1215L36.3093 22.6886Z" fill="url(#paint0_linear_25_258)"/>
<path d="M30.2268 27.3967L39.8295 34.8296C53.2665 45.2305 75.0522 45.2305 88.4893 34.8296L113.416 15.5348L125.25 24.6944L101.518 43.0636C88.0813 53.4645 88.0813 70.3277 101.518 80.7286L125.191 99.0522L103.814 115.599C97.8504 120.215 90.2426 122.782 82.4501 123.301C94.0182 112.837 93.4055 97.0764 80.612 87.1736L47.506 61.548C34.4471 51.4398 13.5027 51.1553 0 60.6947C0.358368 54.2689 3.70689 47.9244 10.0456 43.018L30.2268 27.3967Z" fill="url(#paint1_linear_25_258)"/>
<path d="M131.332 29.4025L107.601 47.7717C97.5231 55.5724 97.5231 68.2198 107.601 76.0205L131.273 94.3441L139.086 88.2969L129.262 80.6932C115.825 70.2923 115.825 53.4291 129.262 43.0282L139.099 35.4142L131.332 29.4025Z" fill="url(#paint2_linear_25_258)"/>
<path d="M20.9849 78.0727L13.8291 83.6116L22.3446 90.203L29.279 84.8354C30.9586 83.5353 33.6818 83.5353 35.3615 84.8354C37.0411 86.1356 37.0411 88.2434 35.3615 89.5436L28.4271 94.9111L36.9425 101.503L44.9091 95.336C46.5888 94.0358 49.312 94.0358 50.9916 95.336C52.6712 96.6361 52.6712 98.744 50.9916 100.044L43.025 106.211L51.5404 112.802L59.6791 106.502C61.3587 105.202 64.082 105.202 65.7616 106.502C67.4412 107.802 67.4412 109.91 65.7616 111.21L57.7466 117.414C61.8054 119.981 66.4444 121.722 71.2905 122.638L74.5295 120.13C84.6073 112.33 84.6073 99.6824 74.5295 91.8817L41.4235 66.2561C31.3458 58.4555 15.0065 58.4555 4.92872 66.2561L1.25928 69.0965C2.52586 72.5769 4.72404 75.8969 7.85383 78.8205L14.9025 73.3646C16.5821 72.0645 19.3053 72.0645 20.9849 73.3646C22.6646 74.6647 22.6646 76.7726 20.9849 78.0727Z" fill="url(#paint3_linear_25_258)"/>
<path d="M135.345 75.985L145.168 83.5888L148.922 80.683C162.359 70.2821 162.359 53.4189 148.922 43.018L145.181 40.1223L135.345 47.7363C125.267 55.537 125.267 68.1843 135.345 75.985Z" fill="url(#paint4_linear_25_258)"/>
<defs>
<linearGradient id="paint0_linear_25_258" x1="79.5171" y1="123.358" x2="79.5194" y2="0.301207" gradientUnits="userSpaceOnUse">
<stop stop-color="#5332ED"/>
<stop offset="1" stop-color="#3094ED"/>
</linearGradient>
<linearGradient id="paint1_linear_25_258" x1="79.5171" y1="123.358" x2="79.5194" y2="0.301207" gradientUnits="userSpaceOnUse">
<stop stop-color="#5332ED"/>
<stop offset="1" stop-color="#3094ED"/>
</linearGradient>
<linearGradient id="paint2_linear_25_258" x1="79.5171" y1="123.358" x2="79.5194" y2="0.301207" gradientUnits="userSpaceOnUse">
<stop stop-color="#5332ED"/>
<stop offset="1" stop-color="#3094ED"/>
</linearGradient>
<linearGradient id="paint3_linear_25_258" x1="79.5171" y1="123.358" x2="79.5194" y2="0.301207" gradientUnits="userSpaceOnUse">
<stop stop-color="#5332ED"/>
<stop offset="1" stop-color="#3094ED"/>
</linearGradient>
<linearGradient id="paint4_linear_25_258" x1="79.5171" y1="123.358" x2="79.5194" y2="0.301207" gradientUnits="userSpaceOnUse">
<stop stop-color="#5332ED"/>
<stop offset="1" stop-color="#3094ED"/>
</linearGradient>
</defs>
</svg>
