<svg width="159" height="123" viewBox="0 0 159 123" fill="none" xmlns="http://www.w3.org/2000/svg">
<path d="M36.3093 22.3874L55.154 7.80067C68.591 -2.60023 90.3768 -2.60022 103.814 7.80068L107.334 10.5255L82.4068 29.8203C72.329 37.621 55.9897 37.621 45.912 29.8203L36.3093 22.3874Z" fill="url(#paint0_linear_26_93)"/>
<path d="M30.2268 27.0955L39.8295 34.5284C53.2665 44.9293 75.0522 44.9293 88.4893 34.5284L113.416 15.2336L125.25 24.3931L101.518 42.7624C88.0813 53.1633 88.0813 70.0265 101.518 80.4274L125.191 98.751L103.814 115.298C97.8504 119.914 90.2426 122.481 82.4501 123C94.0182 112.536 93.4055 96.7752 80.612 86.8724L47.506 61.2468C34.4471 51.1386 13.5027 50.8541 0 60.3935C0.358368 53.9677 3.70689 47.6232 10.0456 42.7168L30.2268 27.0955Z" fill="url(#paint1_linear_26_93)"/>
<path d="M131.332 29.1013L107.601 47.4705C97.5231 55.2712 97.5231 67.9186 107.601 75.7192L131.273 94.0429L139.086 87.9957L129.262 80.3919C115.825 69.991 115.825 53.1278 129.262 42.727L139.099 35.113L131.332 29.1013Z" fill="url(#paint2_linear_26_93)"/>
<path d="M20.9849 77.7715L13.8291 83.3104L22.3446 89.9018L29.279 84.5342C30.9586 83.2341 33.6818 83.2341 35.3615 84.5342C37.0411 85.8343 37.0411 87.9422 35.3615 89.2423L28.4271 94.6099L36.9425 101.201L44.9091 95.0347C46.5888 93.7346 49.312 93.7346 50.9916 95.0347C52.6712 96.3349 52.6712 98.4428 50.9916 99.7429L43.025 105.909L51.5404 112.501L59.6791 106.201C61.3587 104.901 64.082 104.901 65.7616 106.201C67.4412 107.501 67.4412 109.609 65.7616 110.909L57.7466 117.113C61.8054 119.68 66.4444 121.421 71.2905 122.336L74.5295 119.829C84.6073 112.029 84.6073 99.3812 74.5295 91.5805L41.4235 65.9549C31.3458 58.1542 15.0065 58.1542 4.92872 65.9549L1.25928 68.7952C2.52586 72.2757 4.72404 75.5957 7.85383 78.5193L14.9025 73.0634C16.5821 71.7633 19.3053 71.7633 20.9849 73.0634C22.6646 74.3635 22.6646 76.4714 20.9849 77.7715Z" fill="url(#paint3_linear_26_93)"/>
<path d="M135.345 75.6838L145.168 83.2876L148.922 80.3818C162.359 69.9809 162.359 53.1177 148.922 42.7168L145.181 39.8211L135.345 47.4351C125.267 55.2358 125.267 67.8831 135.345 75.6838Z" fill="url(#paint4_linear_26_93)"/>
<defs>
<linearGradient id="paint0_linear_26_93" x1="79.5171" y1="123.056" x2="79.5194" y2="-1.81091e-06" gradientUnits="userSpaceOnUse">
<stop stop-color="#5332ED"/>
<stop offset="1" stop-color="#3094ED"/>
</linearGradient>
<linearGradient id="paint1_linear_26_93" x1="79.5171" y1="123.056" x2="79.5194" y2="-1.81091e-06" gradientUnits="userSpaceOnUse">
<stop stop-color="#5332ED"/>
<stop offset="1" stop-color="#3094ED"/>
</linearGradient>
<linearGradient id="paint2_linear_26_93" x1="79.5171" y1="123.056" x2="79.5194" y2="-1.81091e-06" gradientUnits="userSpaceOnUse">
<stop stop-color="#5332ED"/>
<stop offset="1" stop-color="#3094ED"/>
</linearGradient>
<linearGradient id="paint3_linear_26_93" x1="79.5171" y1="123.056" x2="79.5194" y2="-1.81091e-06" gradientUnits="userSpaceOnUse">
<stop stop-color="#5332ED"/>
<stop offset="1" stop-color="#3094ED"/>
</linearGradient>
<linearGradient id="paint4_linear_26_93" x1="79.5171" y1="123.056" x2="79.5194" y2="-1.81091e-06" gradientUnits="userSpaceOnUse">
<stop stop-color="#5332ED"/>
<stop offset="1" stop-color="#3094ED"/>
</linearGradient>
</defs>
</svg>
